<?xml version="1.0" encoding="utf-8"?>
<!-- Generator: Adobe Illustrator 21.0.2, SVG Export Plug-In . SVG Version: 6.00 Build 0)  -->
<svg version="1.1" id="Layer_1" xmlns="http://www.w3.org/2000/svg" xmlns:xlink="http://www.w3.org/1999/xlink" x="0px" y="0px"
	 viewBox="0 0 128 128" style="enable-background:new 0 0 128 128;" xml:space="preserve">
<style type="text/css">
	.st0{fill:#007897;}
</style>
<g id="Ps">
</g>
<g id="Ai">
</g>
<g id="Ai_download">
</g>
<g id="Image">
</g>
<g id="Image_download">
</g>
<g id="Video">
</g>
<g id="Video_download">
</g>
<g id="Ps_download">
</g>
<g id="Doc">
</g>
<g id="Doc_download">
</g>
<g id="Music">
</g>
<g id="Music_download">
</g>
<g id="Pdf">
</g>
<g id="Pdf_download">
</g>
<g id="Word">
</g>
<g id="Word_download">
</g>
<g id="Exel">
</g>
<g id="Powerpoint">
</g>
<g id="Powerpoint_download">
</g>
<g id="Zip">
</g>
<g id="Zip_download">
</g>
<g>
	<polygon class="st0" points="55.7,96 63.7,83 71.7,96 80,96 68.3,78.7 79.1,61.7 71.3,61.7 64.1,74 56.7,61.7 48.7,61.7 59.4,78.3 
		48,96 	"/>
	<path class="st0" d="M104,80c-13.3,0-24,10.7-24,24s10.7,24,24,24s24-10.7,24-24S117.3,80,104,80z M114.9,104.5l-0.1,0.2l-8.2,11.4
		c-0.5,0.9-1.5,1.4-2.5,1.4s-2-0.5-2.5-1.4l-8.5-11.6c-0.5-0.9-0.5-2.1,0-3s1.5-1.5,2.6-1.5h4.3v-6.5c0-1.7,1.3-3,3-3h2
		c1.7,0,3,1.3,3,3v6.5h4.3c1.1,0,2.1,0.6,2.6,1.5S115.4,103.6,114.9,104.5z"/>
	<polygon class="st0" points="84,126 84,125.9 83.9,126 	"/>
	<path class="st0" d="M24,122c-3.3,0-6-2.7-6-6V12c0-3.3,2.7-6,6-6h40.7c1.6,0,3.1,0.6,4.2,1.8l39.3,39.3c1.1,1.1,1.8,2.7,1.8,4.2
		v21.6l3.9,4.1h0.1v-0.1V51.3c0-2.7-1-5.2-2.9-7.1L71.8,4.9C69.9,3,67.4,2,64.7,2H24c-5.5,0-10,4.5-10,10v104c0,5.5,4.5,10,10,10
		h59.9l-4-4H24z"/>
</g>
</svg>
