<?xml version="1.0" encoding="utf-8"?>
<!-- Generator: Adobe Illustrator 21.0.2, SVG Export Plug-In . SVG Version: 6.00 Build 0)  -->
<svg version="1.1" xmlns="http://www.w3.org/2000/svg" xmlns:xlink="http://www.w3.org/1999/xlink" x="0px" y="0px"
	 viewBox="0 0 128 128" style="enable-background:new 0 0 128 128;" xml:space="preserve">
<style type="text/css">
	.st0{fill:#007897;}
	.st1{fill:#FF9A30;}
	.st2{fill:#FFFFFF;}
</style>
<g id="Layer_1">
	<g id="Ps">
	</g>
	<g id="Ai">
	</g>
	<g id="Ai_download">
	</g>
	<g id="Image">
	</g>
	<g id="Image_download">
	</g>
	<g id="Video">
	</g>
	<g id="Video_download">
	</g>
	<g id="Ps_download">
	</g>
	<g id="Doc">
	</g>
	<g id="Doc_download">
	</g>
	<g id="Music">
	</g>
	<g id="Music_download">
	</g>
	<g id="Pdf">
	</g>
	<g id="Pdf_download">
	</g>
	<g id="Word">
	</g>
	<g id="Word_download">
	</g>
	<g id="Exel">
	</g>
	<g id="Exel_download">
		<g>
			<g>
				<path class="st0" d="M80,96h-8.3l-8-13l-8,13H48l11.4-17.7L48.7,61.7h8l7.4,12.3l7.2-12.3h7.8l-10.8,17L80,96z"/>
			</g>
			<g>
				<g>
					<polygon class="st1" points="84,125.9 83.9,126 84,126 					"/>
				</g>
				<g>
					<polygon class="st1" points="114,77 114,76.9 113.9,77 					"/>
				</g>
				<g>
					<path class="st0" d="M111.1,44.2L71.8,4.9C69.9,3,67.4,2,64.7,2H24c-5.5,0-10,4.5-10,10v104c0,5.5,4.5,10,10,10h59.9l-4-4H24
						c-3.3,0-6-2.7-6-6V12c0-3.3,2.7-6,6-6h40.7c1.6,0,3.1,0.6,4.2,1.8l39.3,39.3c1.1,1.1,1.8,2.7,1.8,4.2v21.6l4,4V51.3
						C114,48.6,113,46.1,111.1,44.2z"/>
				</g>
				<g>
					<polyline class="st2" points="113.9,77 114,76.9 110,72.9 					"/>
				</g>
			</g>
		</g>
	</g>
	<g id="Powerpoint">
	</g>
	<g id="Powerpoint_download">
	</g>
	<g id="Zip">
	</g>
	<g id="Zip_download">
	</g>
</g>
<g id="Layer_2">
	<g>
		<g>
			<path class="st0" d="M104.1,103.8c0-0.8,0.5-1.5,1.1-1.8c-0.4-0.1-0.7-0.2-1.1-0.2c-1.9,0-3.4,1.5-3.4,3.4c0,1.9,1.5,3.4,3.4,3.4
				c1.9,0,3.4-1.5,3.4-3.4v0c-0.4,0.4-0.9,0.6-1.4,0.6C105,105.8,104.1,104.9,104.1,103.8z"/>
			<path class="st0" d="M104.1,96.2c-5.6,0-10.7,4.4-12.8,7.1c-0.5,0.6-0.7,1.3-0.8,1.9c0,0.7,0.3,1.3,0.8,1.9
				c2.1,2.7,7.2,7.1,12.8,7.1c5.6,0,10.7-4.4,12.8-7.1c0.5-0.6,0.7-1.3,0.8-1.9c0-0.7-0.3-1.3-0.8-1.9
				C114.8,100.6,109.7,96.2,104.1,96.2z M104.1,110.9c-3.1,0-5.7-2.5-5.7-5.7c0-3.1,2.5-5.7,5.7-5.7c3.1,0,5.7,2.5,5.7,5.7
				C109.7,108.3,107.2,110.9,104.1,110.9z"/>
			<path class="st0" d="M104,80c-13.3,0-24,10.7-24,24s10.7,24,24,24s24-10.7,24-24S117.3,80,104,80z M120.2,105.3
				c0,1.2-0.5,2.4-1.3,3.4c-2.4,3-8.1,8.1-14.8,8.1c-6.7,0-12.4-5.1-14.8-8.1c-0.8-1-1.3-2.2-1.3-3.4l0-0.1l0-0.1
				c0-1.2,0.5-2.4,1.3-3.4c2.4-3,8.1-8.1,14.8-8.1c6.7,0,12.4,5.1,14.8,8.1l0,0c0.8,1,1.3,2.2,1.3,3.4V105.3L120.2,105.3z"/>
		</g>
		<g>
			<path class="st0" d="M104.1,103.8c0-0.8,0.5-1.5,1.1-1.8c-0.4-0.1-0.7-0.2-1.1-0.2c-1.9,0-3.4,1.5-3.4,3.4c0,1.9,1.5,3.4,3.4,3.4
				c1.9,0,3.4-1.5,3.4-3.4v0c-0.4,0.4-0.9,0.6-1.4,0.6C105,105.8,104.1,104.9,104.1,103.8z"/>
			<path class="st0" d="M116.9,103.3c-2.1-2.7-7.2-7.1-12.8-7.1c-5.6,0-10.7,4.4-12.8,7.1c-0.5,0.6-0.7,1.3-0.8,1.9
				c0,0.7,0.3,1.3,0.8,1.9c2.1,2.7,7.2,7.1,12.8,7.1c5.6,0,10.7-4.4,12.8-7.1c0.5-0.6,0.7-1.3,0.8-1.9
				C117.6,104.6,117.4,103.9,116.9,103.3z M104.1,110.9c-3.1,0-5.7-2.5-5.7-5.7c0-3.1,2.5-5.7,5.7-5.7c3.1,0,5.7,2.5,5.7,5.7
				C109.7,108.3,107.2,110.9,104.1,110.9z"/>
		</g>
	</g>
</g>
</svg>
